PathFileType	4	(X/Y/Z)	C:/Users/beibeiliu/ov580/test_trc\sequence.39_training_dense_right.trc
DataRate	CameraRate	NumFrames	NumMarkers	Units	OrigDataRate	OrigDataStartFrame	OrigNumFrames
120	120	25	19	mm	120	28	82
Frame#	Time	ThumbCMC			ThumbMCP			ThumbIP			ThumbTip			IndexMCP			IndexPIP			IndexTip			MiddleMCP			MiddlePIP			MiddleTip			RingMCP			RingPIP			RingTip			PinkyMCP			PinkyPIP			PinkyTip			BackHand1			BackHand2			BackHand3	
		X0	Y0	Z0	X1	Y1	Z1	X2	Y2	Z2	X3	Y3	Z3	X4	Y4	Z4	X5	Y5	Z5	X6	Y6	Z6	X7	Y7	Z7	X8	Y8	Z8	X9	Y9	Z9	X10	Y10	Z10	X11	Y11	Z11	X12	Y12	Z12	X13	Y13	Z13	X14	Y14	Z14	X15	Y15	Z15	X16	Y16	Z16	X17	Y17	Z17	X18	Y18	Z18	
27	0.225	113.827	146.909	110.613	113.288	177.344	105.899	107.479	201.418	94.1097	103.65	219.891	90.7446	71.9279	174.262	66.4254	72.2967	200.594	67.1266	87.0458	216.04	89.8017	53.3907	176.145	75.0683	56.1645	205.293	84.0504	81.4375	197.918	105.485	43.2663	176.564	94.1727	58.6082	199.935	100.511	75.1965	186.371	120.384	36.153	174.293	111.245	48.3768	195.29	117.694	73.8238	180.436	120.355	57.5543	134.217	110.756	74.0236	115.323	129.697	84.6964	125.623	103.031	
28	0.233333	117.764	149.468	110.96	121.148	178.298	99.7447	120.271	195.896	90.229	116.899	217.043	80.4188	87.1581	174.805	58.9256	89.3815	200.26	60.2611	102.043	211.887	88.3972	65.8902	178.344	67.0608	72.2696	205.664	71.4132	90.7062	199.901	99.6883	55.4097	184.318	84.4891	68.7478	204.528	94.4795	84.291	190.786	112.479	46.4687	181.351	102.164	61.6205	200.334	106.165	79.8665	188.484	118.848	65.216	137.878	109.432	74.6469	123.64	132.091	92.3233	129.053	103.138	
29	0.241667	124.586	146.23	114.023	132.432	171.768	99.1365	135.595	189.984	80.7651	125.96	208.217	67.9363	96.8694	169.613	55.8294	101.941	193.279	53.9949	111.834	205.617	78.5271	77.1327	174.127	59.5469	85.3308	201.5	64.1195	103.692	196.357	91.0694	66.3844	180.478	77.721	82.8234	202.258	84.8446	95.6742	188	105.423	57.6636	180.809	93.2316	73.7608	200.837	97.6078	88.6104	189.925	113.53	70.9689	140.528	106.632	77.4811	128.121	132.44	101.024	127.932	108.503	
30	0.25	128.982	146.673	112.668	136.925	168.862	94.7563	137.697	183.423	78.8903	131.865	198.638	64.3093	106.63	159.245	54.1713	105.739	186.896	50.5346	115.082	201.638	71.2881	83.0258	166.393	57.0838	90.2661	195.43	55.9712	103.711	195.626	84.6228	70.8035	176.7	70.7591	87.0268	197.73	75.7164	95.7676	186.741	102.908	63.8185	178.237	86.6753	79.6767	195.708	88.5522	92.9391	187.577	106.245	74.2457	140.31	107.963	81.9087	132.043	131.02	103.032	127.23	111.134	
31	0.258333	127.236	145.703	115.878	133.981	167.331	92.2115	135.084	178.742	75.8244	130.376	194.185	57.4059	101.569	151.049	56.9682	105.423	179.472	46.7027	111.375	197.54	68.3103	80.2845	158.626	55.3324	85.4333	187.135	51.8554	104.033	191.771	80.8547	70.4788	169.959	68.2856	82.6975	192.579	73.5555	96.1724	185.593	94.7694	59.6687	173.709	86.1706	75.5283	191.216	85.3555	91.8676	182.184	103.142	75.1796	136.976	108.148	83.0337	128.225	134.765	99.4116	126.569	114.077	
32	0.266667	127.66	143.83	119.784	131.618	164.27	92.4661	132.923	174.432	72.4168	125.998	187.076	55.1771	99.387	143.035	58.805	104.042	172.021	44.9917	109.368	190.084	61.9068	78.8633	149.089	59.8424	84.8911	178.354	49.4485	95.9878	187.458	78.9798	66.0465	161.066	70.3472	78.1143	184.873	69.6966	89.47	181.037	96.7081	56.5841	165.317	86.5648	68.2485	188.101	85.9502	86.7809	176.696	104.168	70.1025	131.962	112.995	76.5304	129.514	137.182	96.6165	123.643	114.548	
33	0.275	123.143	142.092	120.561	129.769	159.769	97.6369	129.833	169.112	75.9336	125.317	178.621	53.0278	99.3136	135.664	56.5361	98.1982	158.988	43.331	101.825	182.886	58.5782	73.741	140.816	63.0559	79.056	167.96	48.3998	93.3748	180.316	73.8791	61.5473	154.493	69.0417	72.4118	177.609	69.0757	83.4189	177.565	93.5175	52.7121	159.462	85.0293	65.0591	180.28	83.4366	84.0863	174.512	105.713	69.5664	125.132	115.231	77.3897	124.856	137.715	100.468	120.011	120.541	
34	0.283333	119.727	138.971	120.31	127.004	154.231	94.1186	124.243	160.406	76.9079	123.88	168.631	51.6887	94.2854	125.579	62.3198	97.7788	148.727	41.8885	100.371	172.089	51.6981	77.4564	128.845	59.147	77.3642	153.788	46.8685	90.7322	169.707	74.3442	62.6443	140.984	70.0951	68.8886	164.605	65.7805	85.5562	166.88	92.1206	51.7301	149.329	84.8388	62.74	170.236	81.5397	81.5137	167.213	99.3119	68.393	122.697	119.589	77.578	123.448	143.773	98.1468	116.022	121.646	
35	0.291667	119.192	136.956	123.858	124.247	149.346	91.9086	125.868	155.169	72.6095	119.199	159.752	52.6535	98.3473	116.335	59.6483	93.3589	135.134	43.6026	100.3	162.407	45.6315	74.7452	119.578	59.3106	75.8233	144.848	45.2536	85.9521	164.192	69.3509	59.4398	132.532	71.6609	71.9666	156.961	63.1823	81.9749	163.151	90.5095	51.3179	141.995	81.1825	60.7956	159.761	76.3811	78.875	162.098	96.6652	71.0087	115.1	119.466	76.7445	120.904	146.924	95.321	112.092	125.422	
36	0.3	118.606	132.135	119.287	123.376	145.963	94.6381	124.085	149.017	67.2956	120.285	155.236	49.5122	94.2401	112.143	61.2939	96.1871	130.251	40.8385	96.655	156.993	44.3021	77.4643	114.144	58.9666	75.5114	137.576	44.1462	91.0602	159.408	65.9778	61.1766	127.499	70.2964	71.0941	153.136	62.6337	83.2236	157.931	86.7977	49.0432	137.589	84.2669	63.5193	160.449	76.7972	79.9299	160.215	91.3149	70.355	114.418	118.371	76.6108	116.298	141.078	96.4832	110.007	127.392	
37	0.308333	117.842	131.273	120.044	125.844	144.914	92.2351	125.317	149.998	65.0238	120.288	157.3	47.1684	93.4138	115.424	59.0648	91.5193	134.573	39.6739	102.024	162.397	43.7441	73.1131	118.213	56.1845	73.3845	144.326	43.189	88.2526	161.511	67.6306	59.3185	130.826	67.3221	72.0531	157.271	62.0157	85.2126	159.46	83.8245	48.3472	142.659	80.4263	64.1695	162.659	76.3148	82.0536	158.707	94.2225	67.1993	113.102	116.23	71.4415	114.698	138.251	93.6791	107.106	117.862	
38	0.316667	119.409	130.612	114.364	126.434	148.763	89.6941	126.913	158.652	65.2429	123.998	170.492	50.6098	92.3234	131.093	48.6153	95.7286	154.459	36.3717	103.397	177.838	51.4473	70.523	135.084	52.2367	77.8473	161.365	41.3365	94.8266	172.918	68.9138	62.0102	147.82	60.9129	71.2002	171.013	61.9268	88.2274	167.833	85.6214	50.3515	152.691	79.6579	62.4771	173.408	77.4037	82.1374	166.873	92.994	67.246	119.696	107.677	74.1125	115.042	129.138	91.6409	108.637	109.485	
39	0.325	125.31	130.809	105.214	129.562	156.5	85.1382	128.468	172.563	70.0257	127.317	189.747	60.5929	98.6106	148.433	47.5971	102.127	176.552	39.2111	111.209	195.044	61.8817	77.6092	157.754	46.2747	83.7517	187.515	50.4071	97.8752	186.074	79.53	63.4844	168.891	62.9433	79.689	187.624	71.0918	93.056	174.365	92.9536	56.5665	166.67	78.7158	71.3124	186.021	85.8102	86.9121	169.983	100.325	65.7653	126.193	97.3666	73.3633	115.284	121.172	94.0974	112.828	95.3157	
40	0.333333	126.3	131.919	94.973	133.412	160.874	90.6436	134.17	183.215	82.661	127.573	203.543	77.7122	100.681	166.483	47.356	101.904	194.949	52.4498	111.92	204.546	81.1731	76.7774	174.154	54.0707	86.4296	200.138	61.6557	102.053	193.097	91.4996	65.5444	176.595	73.0495	82.8641	194.936	84.8509	95.1844	178.371	103.205	56.71	175.261	88.8829	75.5442	188.221	100.617	90.1663	169.01	108.682	70.3696	129.158	87.8886	75.8399	110.142	106.505	94.2062	118.085	86.0969	
41	0.341667	127.69	131.155	92.6552	137.476	160.461	96.0058	132.035	185.639	92.5594	126.379	208.785	94.3109	103.009	174.721	51.4343	103.337	201.327	63.3674	112.677	206.949	88.4797	80.4386	182.3	59.7181	85.9027	202.896	78.7777	101.614	187.064	103.998	68.3724	180.538	80.2108	84.3634	192.456	94.9834	97.6616	167.892	110.022	58.8556	169.752	95.0938	81.4182	179.887	107.67	92.4851	161.24	113.66	72.3619	124.926	84.285	80.3737	108.819	97.8732	101.54	117.235	78.2987	
42	0.35	130.07	132.428	92.319	135.685	161.215	99.3613	130.912	187.867	98.1139	120.523	209.678	101.215	99.4059	178.343	55.9783	98.3152	199.635	67.6498	104.941	205.131	94.3929	78.1361	180.052	64.3452	81.5901	198.859	82.9216	99.3322	183.576	108.373	71.5409	173.445	80.7076	83.4762	185.223	101.945	99.4095	166.433	111.03	59.2646	162.812	96.2853	76.0168	173.051	112.566	94.7757	152.403	114.795	78.267	120.489	80.6422	85.9827	103.19	93.1774	106.352	118.972	74.2934	
43	0.358333	136.149	142.509	97.6337	128.006	170.036	103.243	117.752	191.623	102.078	102.543	207.396	102.405	99.7334	174.617	55.1295	90.2183	202.857	68.6273	89.2275	205.674	93.641	80.1351	170.816	60.2689	75.1204	194.319	79.9743	88.0806	182.232	105.61	67.724	163.668	73.6592	74.7094	177.715	99.1986	88.7368	160.433	111.905	57.2381	152.686	87.7497	70.6996	163.844	105.376	90.1296	148.55	111.522	91.0134	116.896	75.3379	101.592	100.633	87.9216	116.9	119.321	77.7076	
44	0.366667	128.097	160.788	105.867	112.23	183.13	109.67	94.2443	198.092	103.677	74.4491	208.216	97.608	99.3594	187.018	53.4492	79.1749	201.3	60.183	62.9988	198.436	85.2631	83.213	173.116	52.6405	61.675	183.505	69.6805	72.6173	176.084	98.7632	69.8914	158.735	62.3111	63.768	169.443	86.8703	79.9176	157.937	103.387	68.8304	142.66	70.6543	65.0153	152.859	92.9072	87.1348	150.265	101.538	111.033	125.075	68.1844	124.145	110.903	92.0942	134.098	138.686	84.4269	
45	0.375	113.725	177.892	115.172	86.9223	192.034	107.726	68.5022	200.051	94.5737	50.6444	202.575	80.7459	101.741	195.897	56.3624	73.3741	202.293	52.3765	48.7749	192.249	66.2436	94.5806	182.262	46.8154	65.9049	182.504	50.1698	63.3246	169.46	81.8825	90.9465	161.91	50.2539	66.5271	163.004	66.3272	76.8877	157.932	90.6273	86.8245	142.106	53.2833	72.6459	149.326	68.3106	84.6091	148.546	93.5655	131.029	148.572	76.6069	141.497	133.212	98.9855	137.034	169.433	96.1023	
46	0.383333	92.2085	185.42	116.243	70.7467	186.932	96.8476	55.1782	191.548	74.7449	47.6288	190.482	61.0707	94.4257	212.276	60.3027	75.1129	204.438	42.6648	52.3587	184.954	40.4809	103.485	197.185	46.1709	76.461	186.997	36.4084	66.7229	167.521	59.5009	107.076	178.971	45.4923	80.2866	167.628	48.5405	81.8201	160.152	74.9035	111.444	157.54	43.3428	88.5842	152.206	55.0724	90.7658	157.4	77.5194	137.247	171.031	80.7797	142.456	160.35	105.669	127.207	186.258	106.42	
47	0.391667	82.1829	178.59	109.749	60.7604	180.52	83.0078	52.0087	184.667	61.8841	51.2883	187.346	41.0244	84.5202	219.922	62.2195	74.7026	211.015	35.7118	58.289	193.277	26.2691	103.108	210.843	45.2555	82.4311	195.189	27.8108	71.0422	170.179	43.7243	112.787	195.065	44.9984	91.604	174.575	36.7823	86.9846	163.936	59.5192	122.928	179.115	43.8326	101.163	169.898	42.3341	93.6394	163.549	64.8458	134.053	186.957	90.6781	132.575	172.002	114.574	111.525	191.634	113.413	
48	0.4	72.5461	169.803	98.8044	57.5716	169.312	71.426	51.2996	177.045	47.4061	48.8389	179.226	30.5447	74.7203	218.841	52.8207	64.7819	213.639	33.6609	62.2369	193.845	15.8844	95.8866	215.97	43.6944	81.7492	202.861	21.9768	75.0192	171.651	28.744	107.116	204.174	42.0531	95.0465	185.529	27.279	91.0651	162.858	50.2831	124.607	189.837	43.2513	108.423	173.855	31.3529	95.8107	165.167	51.7343	125.058	189.49	90.4833	126.922	174.993	109.024	99.9166	189.084	108.735	
49	0.408333	72.1437	161.9	89.5669	57.1781	163.355	59.5429	49.4735	165.383	41.3978	47.3474	172.01	20.3509	68.5479	209.536	50.4316	60.5778	202.219	22.6668	58.4891	182.567	6.09676	85.928	211.85	43.9679	80.3274	196.704	13.7068	75.7735	168.659	18.2019	104.935	201.231	34.8179	90.5605	184.399	20.6837	88.741	158.949	38.9414	118.847	191.379	40.1173	107.568	174.269	24.5409	94.6703	160.452	39.8763	118.877	189.099	84.0494	119.591	170.843	102.334	95.1172	182.899	103.147	
50	0.416667	66.9382	154.989	85.0951	52.4448	152.286	58.0524	46.5869	157.25	38.9199	40.8533	163.694	17.1195	63.6677	201.972	44.013	54.7845	194.343	19.6735	51.0745	175.262	3.89435	82.4658	202.837	32.1624	72.4477	189.661	10.7965	72.9722	156.727	13.5521	102.249	189.998	27.695	87.73	172.612	13.8699	85.2264	147.799	32.5055	114.593	178.074	30.2304	97.6815	164.524	19.3272	92.8925	146.044	35.6397	114.709	181.557	75.5094	119.668	164.145	95.9949	96.1621	173.531	96.0911	
51	0.425	65.8538	147.583	89.4852	50.5315	150.828	60.4172	43.0306	153.215	42.1313	35.3431	158.595	21.4554	72.0484	188.403	39.3621	57.7144	181.895	18.2224	39.6832	163.376	6.14976	87.1169	181.943	27.5079	68.0923	171.42	6.26939	54.4429	142.099	19.3251	99.5181	163.391	19.7448	73.3524	149.163	13.1217	71.051	130.433	34.3615	105.637	149.22	20.7508	88.563	135.996	15.7503	76.8659	127.617	41.5048	117.656	159	65.067	123.486	141.153	86.8717	100.098	162.782	90.4462	
